<svg xmlns="http://www.w3.org/2000/svg" viewBox="0 0 281.16 167.65"><defs><style>.cls-1{fill:#ffffff;}.cls-2{fill:#ffffff;}</style></defs><g id="Layer_2" data-name="Layer 2"><g id="Layer_1-2" data-name="Layer 1"><rect class="cls-1" y="86.9" width="281.16" height="5.06"/><path class="cls-1" d="M150,0h6.33V56.82l13.31-15.11h7.51l-11,12.75L177.9,75.33h-7.31L161.71,59.6l-5.38,6.09v9.64H150ZM125.13,47.85H125l-4.63,15.39h9.35Zm-3.73-6.14h7.36L140,75.33h-6.61l-1.93-6.52H118.71l-1.94,6.52h-6.61Zm-46.2,0H99v5.85H81.53v7.65h16v5.58h-16v8.68h18.69v5.86h-25ZM44.8,57.39h6.9c3.21,0,5.52-1.89,5.52-5.06s-2.08-5-6.47-5h-6ZM38.48,41.71h14c7.13,0,11.33,4.25,11.33,10.15,0,7.55-5,9.3-6.66,9.92l7.51,13.55H57.36L50.85,63H44.8V75.33H38.48Zm-32.15,28H6.33c3.82,0,6.14-1.18,6.14-4.67,0-3.78-2.36-5.15-6.19-5.15H6.33Zm0-14.54h7.51c2.78,0,5.34-1.08,5.34-4.29,0-2.55-1.66-4.21-5.34-4.21H6.33ZM0,41.71H15.82c5.53,0,10,2.78,10,8.36,0,3.68-2,6.09-5.72,6.8V57a8,8,0,0,1,7.23,8.31c0,8.4-6,10.06-13,10.06H0Z"/><rect class="cls-1" x="0" y="25.09" width="138.06" height="5.06"/><rect class="cls-2" x="28.69" y="153.57" width="2.58" height="13.73"/><polygon class="cls-2" points="48.93 153.57 48.93 163.35 48.89 163.35 43.13 153.57 40.76 153.57 40.76 167.3 43.11 167.3 43.11 157.52 43.15 157.52 48.91 167.3 51.29 167.3 51.29 153.57 48.93 153.57"/><path class="cls-2" d="M61.58,163.17a4.78,4.78,0,0,0,4.14,2.09c1.26,0,2.91-.43,2.91-1.76,0-1.08-1-1.39-2.83-1.81l-1.53-.35c-2.19-.5-4.12-1.31-4.12-3.84,0-2.89,2.76-4.28,5.32-4.28A6.81,6.81,0,0,1,71.2,156l-2.14,1.62a3.86,3.86,0,0,0-3.61-2c-1.48,0-2.6.56-2.6,1.53,0,1.13,1.29,1.41,2.83,1.75l1.68.37c2,.44,4,1.27,4,3.88,0,3.35-3.16,4.51-6,4.51a7.22,7.22,0,0,1-5.94-2.89Z"/><polygon class="cls-2" points="78.75 153.57 78.75 155.96 82.51 155.96 82.51 167.3 85.09 167.3 85.09 155.96 88.85 155.96 88.85 153.57 78.75 153.57"/><rect class="cls-2" x="97.12" y="153.57" width="2.58" height="13.73"/><polygon class="cls-2" points="107.97 153.57 107.97 155.96 111.73 155.96 111.73 167.3 114.32 167.3 114.32 155.96 118.08 155.96 118.08 153.57 107.97 153.57"/><path class="cls-2" d="M137.28,163.08c0,2.79-2.22,4.57-5.54,4.57s-5.53-1.78-5.53-4.57v-9.51h2.58v8.83c0,1.68.71,2.74,3,2.74s2.95-1.06,2.95-2.74v-8.83h2.59Z"/><polygon class="cls-2" points="145.41 153.57 145.41 155.96 149.17 155.96 149.17 167.3 151.75 167.3 151.75 155.96 155.51 155.96 155.51 153.57 145.41 153.57"/><polygon class="cls-2" points="163.64 153.57 163.64 167.3 173.86 167.3 173.86 164.91 166.23 164.91 166.23 161.36 172.78 161.36 172.78 159.09 166.23 159.09 166.23 155.96 173.36 155.96 173.36 153.57 163.64 153.57"/><path class="cls-1" d="M281.16,116.22H250.58V103.3h-6.33v12.93H229.8V103.3h-6.32v33.94h6.32V122.08h14.45v15.16h6.33V122h30.58Zm-74-1.29a8.14,8.14,0,0,0-8.41-6.42c-6.7,0-9.48,5.95-9.48,11.8s2.78,11.8,9.48,11.8c4.49,0,8.55-3.16,8.55-7.79H199v-5.57h14.07v18.37h-5.47v-2.88a12.39,12.39,0,0,1-8.84,3.73c-10.76,0-16.09-8.17-16.09-17.66s6-17.66,16.09-17.66c6.85,0,11.76,3.45,14.31,9.87ZM173,126.78c0,6.84-5.43,11.19-13.55,11.19s-13.55-4.35-13.55-11.19V103.5h6.32v21.63c0,4.1,1.75,6.7,7.23,6.7s7.22-2.6,7.22-6.7V103.5H173Zm-62.33-6.47c0,5.86,2.78,11.8,9.49,11.8s9.49-5.94,9.49-11.8-2.79-11.8-9.49-11.8-9.49,5.95-9.49,11.8m25.59,0c0,9.49-6.05,17.66-16.1,17.66s-16.1-8.17-16.1-17.66,6-17.66,16.1-17.66,16.1,8.17,16.1,17.66m-59.12-1.13h6.89c3.21,0,5.53-1.89,5.53-5.05s-2.08-5.06-6.47-5.06h-6ZM70.83,103.5h14c7.12,0,11.33,4.25,11.33,10.15,0,7.56-5.06,9.3-6.66,9.92l7.51,13.55H89.72L83.2,124.75h-6v12.37H70.83Zm-38,0h6.32v12.61H53.64V103.5H60v33.62H53.64V122H39.19v15.16H32.87ZM9.21,109.36H0V103.5H24.74v5.86H15.53v58.29H9.21Z"/></g></g></svg>